<?xml version="1.0" encoding="UTF-8" standalone="no"?>
<svg
   height="48"
   viewBox="0 0 24 24"
   width="48"
   fill="#000000"
   version="1.1"
   id="svg846"
   sodipodi:docname="favicon.svg"
   inkscape:version="1.1.2 (b8e25be833, 2022-02-05)"
   xmlns:inkscape="http://www.inkscape.org/namespaces/inkscape"
   xmlns:sodipodi="http://sodipodi.sourceforge.net/DTD/sodipodi-0.dtd"
   xmlns="http://www.w3.org/2000/svg"
   xmlns:svg="http://www.w3.org/2000/svg">
  <defs
     id="defs850" />
  <sodipodi:namedview
     id="namedview848"
     pagecolor="#505050"
     bordercolor="#ffffff"
     borderopacity="1"
     inkscape:pageshadow="0"
     inkscape:pageopacity="0"
     inkscape:pagecheckerboard="1"
     showgrid="false"
     fit-margin-top="0"
     fit-margin-left="0"
     fit-margin-right="0"
     fit-margin-bottom="0"
     inkscape:zoom="5.7378769"
     inkscape:cx="4.7055732"
     inkscape:cy="39.300251"
     inkscape:window-width="1920"
     inkscape:window-height="1001"
     inkscape:window-x="-9"
     inkscape:window-y="-9"
     inkscape:window-maximized="1"
     inkscape:current-layer="svg846" />
  <g
     fill="none"
     id="g842">
    <path
       d="M 0,0 H 24 V 24 H 0 Z"
       id="path838" />
    <path
       d="M 0,0 H 24 V 24 H 0 Z"
       opacity="0.87"
       id="path840" />
  </g>
  <path
     d="M 18,8 H 17 V 6 C 17,3.24 14.76,1 12,1 9.24,1 7,3.24 7,6 V 8 H 6 C 4.9,8 4,8.9 4,10 v 10 c 0,1.1 0.9,2 2,2 h 12 c 1.1,0 2,-0.9 2,-2 V 10 C 20,8.9 19.1,8 18,8 Z M 9,6 c 0,-1.66 1.34,-3 3,-3 1.66,0 3,1.34 3,3 V 8 H 9 Z m 9,14 H 6 V 10 h 12 z m -6,-3 c 1.1,0 2,-0.9 2,-2 0,-1.1 -0.9,-2 -2,-2 -1.1,0 -2,0.9 -2,2 0,1.1 0.9,2 2,2 z"
     id="path844" />
  <path
     style="fill:#04aa6d;stroke-width:0.0217851"
     d="M 5.671963,21.960006 C 4.9989589,21.837216 4.4094405,21.363426 4.1625837,20.74693 4.0064476,20.356998 4.0193438,20.874495 4.0193438,14.999014 c 0,-4.971197 0.00226,-5.291685 0.038333,-5.432179 C 4.1503487,9.205888 4.3079456,8.914747 4.5513664,8.6548035 4.7445468,8.4485105 4.9168671,8.3216005 5.16462,8.2031575 5.5092775,8.038387 5.609501,8.02225 6.3557915,8.011364 l 0.658998,-0.00962 V 6.8624705 c 0,-0.6332395 0.010105,-1.239486 0.02275,-1.364883 0.05735,-0.5686876 0.232544,-1.1740224 0.489815,-1.6924205 0.255561,-0.5149527 0.499463,-0.8607862 0.8916,-1.2642169 C 8.854659,2.0926974 9.260263,1.7969867 9.8141685,1.5237524 10.558014,1.1568234 11.340454,0.99008245 12.177848,1.0200437 c 0.936241,0.033498 1.793235,0.307782 2.566745,0.8214966 1.054815,0.7005393 1.790749,1.7408175 2.09548,2.9620632 0.13114,0.5255595 0.13662,0.598588 0.146546,1.953073 l 0.0091,1.245059 0.646407,0.01006 c 0.568284,0.00885 0.668307,0.01569 0.827613,0.056622 0.739592,0.1900415 1.290971,0.758567 1.481302,1.5273655 0.03178,0.1283655 0.0359,0.634958 0.04251,5.228948 0.005,3.503857 6.5e-5,5.16317 -0.01601,5.332187 -0.04549,0.478198 -0.213962,0.858059 -0.530801,1.196773 -0.249503,0.266728 -0.593412,0.472722 -0.966844,0.579119 l -0.16957,0.04831 -6.24142,0.0037 c -5.0458605,0.003 -6.271215,-0.0018 -6.3969615,-0.02475 z M 18.016245,14.999014 V 9.9884505 H 12.003569 5.990892 v 5.0105635 5.010565 h 6.012677 6.012676 z M 15.004008,6.791493 C 14.994274,5.453708 14.996828,5.482254 14.846284,5.0288605 14.496061,3.9740958 13.574148,3.2027034 12.45076,3.0244525 12.185709,2.982396 11.642112,2.9954995 11.393587,3.049936 10.789725,3.1822045 10.307016,3.4447476 9.8766935,3.8749672 9.5205825,4.2309933 9.29343,4.5958615 9.1425905,5.054134 9.0110415,5.453799 9.0129225,5.430614 9.003407,6.769708 L 8.994622,8.00601 h 3.009112 3.009111 z"
     id="path1485" />
  <path
     style="fill:#04aa6d;stroke-width:0.0217851"
     d="m 11.611437,16.948304 c -0.622809,-0.127805 -1.146369,-0.544471 -1.413446,-1.124866 -0.146467,-0.318291 -0.166103,-0.417737 -0.164933,-0.835316 9.5e-4,-0.346448 0.005,-0.382294 0.06247,-0.555519 0.122216,-0.368395 0.274107,-0.609165 0.551305,-0.873901 0.278372,-0.265856 0.600292,-0.43263 0.985705,-0.510654 0.238051,-0.04819 0.65813,-0.03341 0.882981,0.03107 0.76247,0.218648 1.324751,0.848692 1.449929,1.624665 0.03426,0.212417 0.01532,0.585043 -0.03993,0.785398 -0.206336,0.7482 -0.792153,1.304746 -1.534342,1.457677 -0.201928,0.04161 -0.5806,0.04231 -0.779734,0.0015 z"
     id="path1524" />
</svg>
