<svg width="800" height="800" xmlns="http://www.w3.org/2000/svg">

 <g>
  <title>background</title>
  <rect fill="none" id="canvas_background" height="802" width="802" y="-1" x="-1"/>
 </g>
 <g>
  <title>Layer 1</title>
  <path stroke="null" id="svg_3" fill-rule="evenodd" clip-rule="evenodd" fill="#fafaff" d="m630.255704,283.986881c-6.22184,-4.604786 -28.577782,-4.604786 -50.7047,-4.604786c-22.591907,0.459785 -45.187284,0.459785 -50.49129,2.536623c-4.826871,1.840873 -15.663907,28.119733 -29.719436,55.080461c-16.149718,30.441211 -35.729602,59.940298 -48.183692,59.463163c-16.361392,0 -12.43674,-50.014155 -11.288146,-87.114436c0.222085,-24.210696 -3.693892,-32.05306 -7.150084,-34.112548c-8.531173,-6.00149 -32.03571,-11.747931 -32.03571,-11.747931s-70.548309,-5.312681 -80.448426,25.11465c13.595744,1.846079 36.649171,-2.314538 27.658213,91.958657c-0.688809,4.622137 -10.837036,43.339471 -43.568496,-8.989223c-8.300413,-13.127284 -39.638638,-91.729632 -50.7047,-92.189417c-36.205002,-0.697485 -72.148013,-2.307598 -84.584753,4.604786c-11.765281,6.92106 15.663907,60.851192 61.999786,133.23864c37.560065,59.463163 77.443344,105.571751 146.594949,117.088922c13.13596,1.394969 46.797398,2.758708 57.634435,-2.298923c7.132734,-3.464867 -1.854754,-54.627617 22.813992,-59.711273c10.837036,-2.066428 53.003623,53.487698 68.90523,59.711273c9.705793,3.915977 30.902731,5.52609 52.568129,4.596111c23.513211,-0.681869 50.23624,2.316273 52.772863,-13.816094c5.772466,-35.269817 -71.204153,-81.385346 -73.287932,-103.043804c-1.847814,-15.672583 28.126673,-44.481125 43.330796,-66.614982c18.891075,-26.738644 39.654254,-59.003378 27.888973,-69.14987z"/>
  <ellipse ry="380" rx="380" id="svg_5" cy="399.999985" cx="400.000001" stroke-width="27" stroke="#fafaff" fill="none"/>
 </g>
</svg>